<svg width="11" height="6" viewBox="0 0 11 6" fill="none" xmlns="http://www.w3.org/2000/svg">
<path d="M9.87499 0.523731C9.71104 0.360761 9.48927 0.269287 9.25811 0.269287C9.02695 0.269287 8.80518 0.360761 8.64124 0.523731L5.49999 3.62123L2.40249 0.523731C2.23854 0.360761 2.01677 0.269287 1.78561 0.269287C1.55445 0.269287 1.33268 0.360761 1.16874 0.523731C1.08672 0.605073 1.02163 0.701849 0.977205 0.808476C0.932783 0.915103 0.909912 1.02947 0.909912 1.14498C0.909912 1.26049 0.932783 1.37486 0.977205 1.48149C1.02163 1.58811 1.08672 1.68489 1.16874 1.76623L4.87874 5.47623C4.96008 5.55824 5.05685 5.62334 5.16348 5.66776C5.27011 5.71218 5.38448 5.73505 5.49999 5.73505C5.6155 5.73505 5.72986 5.71218 5.83649 5.66776C5.94312 5.62334 6.03989 5.55824 6.12124 5.47623L9.87499 1.76623C9.957 1.68489 10.0221 1.58811 10.0665 1.48149C10.1109 1.37486 10.1338 1.26049 10.1338 1.14498C10.1338 1.02947 10.1109 0.915103 10.0665 0.808476C10.0221 0.701849 9.957 0.605073 9.87499 0.523731Z" fill="white"/>
</svg>
