<svg xmlns="http://www.w3.org/2000/svg" viewBox="0 0 176 24" width="176" height="24" preserveAspectRatio="xMidYMid meet" style="width: 100%; height: 100%; transform: translate3d(0px, 0px, 0px);"><defs><clipPath id="__lottie_element_2"><rect width="176" height="24" x="0" y="0"></rect></clipPath><mask id="__lottie_element_7"><path fill="#ffffff" clip-rule="nonzero" d=" M-12,-12 C-12,-12 -12,12 -12,12 C-12,12 27,12 27,12 C27,12 19.5,7.031000137329102 19.5,7.031000137329102 C19.5,7.031000137329102 17,-0.13600000739097595 17,-0.13600000739097595 C17,-0.13600000739097595 20,-7.302999973297119 20,-7.302999973297119 C20,-7.302999973297119 27,-12 27,-12 C27,-12 -12,-12 -12,-12" fill-opacity="1"></path><path fill="#000000" clip-rule="nonzero" d=" M27.018999099731445,-7.964000225067139 C22.60099983215332,-7.964000225067139 19.018999099731445,-4.381999969482422 19.018999099731445,0.035999998450279236 C19.018999099731445,4.453999996185303 22.60099983215332,8.03600025177002 27.018999099731445,8.03600025177002 C31.437000274658203,8.03600025177002 35.01900100708008,4.453999996185303 35.01900100708008,0.035999998450279236 C35.01900100708008,-4.381999969482422 31.437000274658203,-7.964000225067139 27.018999099731445,-7.964000225067139" fill-opacity="1"></path></mask></defs><g clip-path="url(#__lottie_element_2)"><g transform="matrix(1,0,0,1,-0.22700023651123047,0.25)" opacity="1" style="display: block;"><g opacity="1" transform="matrix(1,0,0,1,11.25,11.75)"><path fill="rgb(255,255,255)" fill-opacity="1" d=" M11,-11.5 C11,-11.5 -11,-11.5 -11,-11.5 C-11,-11.5 -11,-7.366000175476074 -11,-7.366000175476074 C-11,-7.366000175476074 -1.9630000591278076,-7.366000175476074 -1.9630000591278076,-7.366000175476074 C-1.9630000591278076,-7.366000175476074 -1.9630000591278076,11.5 -1.9630000591278076,11.5 C-1.9630000591278076,11.5 2.1700000762939453,11.5 2.1700000762939453,11.5 C2.1700000762939453,11.5 2.1700000762939453,-7.366000175476074 2.1700000762939453,-7.366000175476074 C2.1700000762939453,-7.366000175476074 11,-7.366000175476074 11,-7.366000175476074 C11,-7.366000175476074 11,-11.5 11,-11.5z"></path></g></g><g mask="url(#__lottie_element_7)" transform="matrix(1,0,0,1,36.02299880981445,12)" opacity="1" style="display: block;"><path fill="rgb(255,255,255)" fill-opacity="1" d=" M39,0 C39,0 39,0 39,0 C39,6.622799873352051 33.622798919677734,12 27,12 C27,12 0,12 0,12 C-6.622799873352051,12 -12,6.622799873352051 -12,0 C-12,0 -12,0 -12,0 C-12,-6.622799873352051 -6.622799873352051,-12 0,-12 C0,-12 27,-12 27,-12 C33.622798919677734,-12 39,-6.622799873352051 39,0z"></path></g><g transform="matrix(1,0,0,1,50.44200134277344,-0.5979995727539062)" opacity="1" style="display: block;"><g opacity="1" transform="matrix(1,0,0,1,12.585000038146973,12.597999572753906)"><path fill="rgb(255,255,255)" fill-opacity="1" d=" M11.815999984741211,-2.0920000076293945 C11.815999984741211,-2.0920000076293945 11.815999984741211,-2.0920000076293945 11.815999984741211,-2.0920000076293945 C11.815999984741211,-2.0920000076293945 0.2029999941587448,-2.0920000076293945 0.2029999941587448,-2.0920000076293945 C0.2029999941587448,-2.0920000076293945 0.2029999941587448,1.8389999866485596 0.2029999941587448,1.8389999866485596 C0.2029999941587448,1.8389999866485596 7.775000095367432,1.8389999866485596 7.775000095367432,1.8389999866485596 C7.565999984741211,2.7090001106262207 7.210000038146973,3.5460000038146973 6.715000152587891,4.310999870300293 C5.624000072479248,6.001999855041504 3.934999942779541,7.21999979019165 1.9859999418258667,7.7210001945495605 C0.035999998450279236,8.222000122070312 -2.0299999713897705,7.96999979019165 -3.8010001182556152,7.013999938964844 C-5.572999954223633,6.059000015258789 -6.919000148773193,4.46999979019165 -7.572000026702881,2.565999984741211 C-8.223999977111816,0.6620000004768372 -8.13599967956543,-1.4170000553131104 -7.322000026702881,-3.257999897003174 C-6.508999824523926,-5.098999977111816 -5.031000137329102,-6.566999912261963 -3.184000015258789,-7.367000102996826 C-1.3359999656677246,-8.166999816894531 0.7440000176429749,-8.241000175476074 2.6429998874664307,-7.573999881744385 C4.013999938964844,-7.0929999351501465 5.215000152587891,-6.248000144958496 6.131999969482422,-5.1479997634887695 C6.131999969482422,-5.1479997634887695 9.194999694824219,-7.7170000076293945 9.194999694824219,-7.7170000076293945 C7.818999767303467,-9.362000465393066 6.0229997634887695,-10.628000259399414 3.9690001010894775,-11.347999572753906 C1.1200000047683716,-12.347999572753906 -2.002000093460083,-12.23799991607666 -4.7729997634887695,-11.038000106811523 C-7.544000148773193,-9.83899974822998 -9.76099967956543,-7.638000011444092 -10.982000350952148,-4.875999927520752 C-12.20199966430664,-2.114000082015991 -12.335000038146973,1.00600004196167 -11.357000350952148,3.86299991607666 C-10.378000259399414,6.71999979019165 -8.359000205993652,9.102999687194824 -5.702000141143799,10.53600025177002 C-3.0439999103546143,11.970000267028809 0.057999998331069946,12.347999572753906 2.9820001125335693,11.595999717712402 C5.9070000648498535,10.843999862670898 8.4399995803833,9.019000053405762 10.07699966430664,6.48199987411499 C11.71500015258789,3.944000005722046 12.336000442504883,0.8820000290870667 11.815999984741211,-2.0920000076293945z"></path></g></g><g transform="matrix(1,0,0,1,77.39600372314453,-0.5979995727539062)" opacity="1" style="display: block;"><g opacity="1" transform="matrix(1,0,0,1,12.585000038146973,12.597999572753906)"><path fill="rgb(255,255,255)" fill-opacity="1" d=" M11.815999984741211,-2.0920000076293945 C11.815999984741211,-2.0920000076293945 11.815999984741211,-2.0920000076293945 11.815999984741211,-2.0920000076293945 C11.815999984741211,-2.0920000076293945 0.2029999941587448,-2.0920000076293945 0.2029999941587448,-2.0920000076293945 C0.2029999941587448,-2.0920000076293945 0.2029999941587448,1.8389999866485596 0.2029999941587448,1.8389999866485596 C0.2029999941587448,1.8389999866485596 7.775000095367432,1.8389999866485596 7.775000095367432,1.8389999866485596 C7.565999984741211,2.7090001106262207 7.210000038146973,3.5460000038146973 6.715000152587891,4.310999870300293 C5.624000072479248,6.001999855041504 3.934999942779541,7.21999979019165 1.9859999418258667,7.7210001945495605 C0.035999998450279236,8.222000122070312 -2.0299999713897705,7.96999979019165 -3.8010001182556152,7.013999938964844 C-5.572999954223633,6.059000015258789 -6.919000148773193,4.46999979019165 -7.572000026702881,2.565999984741211 C-8.223999977111816,0.6620000004768372 -8.13599967956543,-1.4170000553131104 -7.322000026702881,-3.257999897003174 C-6.508999824523926,-5.098999977111816 -5.031000137329102,-6.566999912261963 -3.184000015258789,-7.367000102996826 C-1.3359999656677246,-8.166999816894531 0.7440000176429749,-8.241000175476074 2.6429998874664307,-7.573999881744385 C4.013999938964844,-7.0929999351501465 5.215000152587891,-6.248000144958496 6.131999969482422,-5.1479997634887695 C6.131999969482422,-5.1479997634887695 9.194999694824219,-7.7170000076293945 9.194999694824219,-7.7170000076293945 C7.818999767303467,-9.362000465393066 6.0229997634887695,-10.628000259399414 3.9690001010894775,-11.347999572753906 C1.1200000047683716,-12.347999572753906 -2.002000093460083,-12.23799991607666 -4.7729997634887695,-11.038000106811523 C-7.544000148773193,-9.83899974822998 -9.76099967956543,-7.638000011444092 -10.982000350952148,-4.875999927520752 C-12.20199966430664,-2.114000082015991 -12.335000038146973,1.00600004196167 -11.357000350952148,3.86299991607666 C-10.378000259399414,6.71999979019165 -8.359000205993652,9.102999687194824 -5.702000141143799,10.53600025177002 C-3.0439999103546143,11.970000267028809 0.057999998331069946,12.347999572753906 2.9820001125335693,11.595999717712402 C5.9070000648498535,10.843999862670898 8.4399995803833,9.019000053405762 10.07699966430664,6.48199987411499 C11.71500015258789,3.944000005722046 12.336000442504883,0.8820000290870667 11.815999984741211,-2.0920000076293945z"></path></g></g><g transform="matrix(1,0,0,1,104.39600372314453,-0.5989999771118164)" opacity="1" style="display: block;"><g opacity="1" transform="matrix(1,0,0,1,12.585000038146973,12.598999977111816)"><path fill="rgb(255,255,255)" fill-opacity="1" d=" M11.815999984741211,-2.0920000076293945 C11.815999984741211,-2.0920000076293945 11.815999984741211,-2.0920000076293945 11.815999984741211,-2.0920000076293945 C11.815999984741211,-2.0920000076293945 0.2029999941587448,-2.0920000076293945 0.2029999941587448,-2.0920000076293945 C0.2029999941587448,-2.0920000076293945 0.2029999941587448,1.8389999866485596 0.2029999941587448,1.8389999866485596 C0.2029999941587448,1.8389999866485596 7.775000095367432,1.8389999866485596 7.775000095367432,1.8389999866485596 C7.565999984741211,2.7090001106262207 7.210000038146973,3.5460000038146973 6.715000152587891,4.310999870300293 C5.624000072479248,6.001999855041504 3.934999942779541,7.21999979019165 1.9859999418258667,7.7210001945495605 C0.035999998450279236,8.222000122070312 -2.0299999713897705,7.96999979019165 -3.8010001182556152,7.013999938964844 C-5.572999954223633,6.059000015258789 -6.919000148773193,4.46999979019165 -7.572000026702881,2.565999984741211 C-8.223999977111816,0.6620000004768372 -8.13599967956543,-1.4170000553131104 -7.322000026702881,-3.257999897003174 C-6.508999824523926,-5.098999977111816 -5.031000137329102,-6.566999912261963 -3.184000015258789,-7.367000102996826 C-1.3359999656677246,-8.166999816894531 0.7440000176429749,-8.241000175476074 2.6429998874664307,-7.573999881744385 C4.013999938964844,-7.0929999351501465 5.215000152587891,-6.248000144958496 6.131999969482422,-5.1479997634887695 C6.131999969482422,-5.1479997634887695 9.194999694824219,-7.7170000076293945 9.194999694824219,-7.7170000076293945 C7.818999767303467,-9.362000465393066 6.021999835968018,-10.628000259399414 3.9690001010894775,-11.347999572753906 C1.1200000047683716,-12.347999572753906 -2.002000093460083,-12.23799991607666 -4.7729997634887695,-11.038000106811523 C-7.544000148773193,-9.83899974822998 -9.76099967956543,-7.638000011444092 -10.982000350952148,-4.875999927520752 C-12.20199966430664,-2.114000082015991 -12.335000038146973,1.00600004196167 -11.357000350952148,3.86299991607666 C-10.378000259399414,6.71999979019165 -8.359000205993652,9.102999687194824 -5.702000141143799,10.53600025177002 C-3.0439999103546143,11.970000267028809 0.057999998331069946,12.347999572753906 2.9820001125335693,11.595999717712402 C5.9070000648498535,10.843999862670898 8.4399995803833,9.019000053405762 10.07699966430664,6.48199987411499 C11.71500015258789,3.944000005722046 12.336000442504883,0.8820000290870667 11.815999984741211,-2.0920000076293945z"></path></g></g><g transform="matrix(1,0,0,1,132.7270050048828,0.25)" opacity="1" style="display: block;"><g opacity="1" transform="matrix(1,0,0,1,9.25,11.75)"><path fill="rgb(255,255,255)" fill-opacity="1" d=" M9,7.367000102996826 C9,7.367000102996826 -4.867000102996826,7.367000102996826 -4.867000102996826,7.367000102996826 C-4.867000102996826,7.367000102996826 -4.867000102996826,-11.5 -4.867000102996826,-11.5 C-4.867000102996826,-11.5 -9,-11.5 -9,-11.5 C-9,-11.5 -9,11.5 -9,11.5 C-9,11.5 9,11.5 9,11.5 C9,11.5 9,7.367000102996826 9,7.367000102996826z"></path></g></g><g transform="matrix(1,0,0,1,151.39599609375,-0.5989999771118164)" opacity="1" style="display: block;"><g opacity="1" transform="matrix(1,0,0,1,12.585000038146973,12.598999977111816)"><path fill="rgb(255,255,255)" fill-opacity="1" d=" M10.07699966430664,-6.48199987411499 C8.439000129699707,-9.019000053405762 5.9070000648498535,-10.845000267028809 2.9820001125335693,-11.595999717712402 C0.05700000002980232,-12.347999572753906 -3.0439999103546143,-11.968999862670898 -5.702000141143799,-10.53600025177002 C-8.359999656677246,-9.10200023651123 -10.378000259399414,-6.71999979019165 -11.357000350952148,-3.86299991607666 C-12.335000038146973,-1.0069999694824219 -12.20199966430664,2.114000082015991 -10.982000350952148,4.875999927520752 C-9.76200008392334,7.638000011444092 -7.544000148773193,9.838000297546387 -4.7729997634887695,11.038000106811523 C-2.002000093460083,12.23799991607666 1.1200000047683716,12.347999572753906 3.9690001010894775,11.347999572753906 C6.021999835968018,10.626999855041504 7.817999839782715,9.362000465393066 9.194999694824219,7.716000080108643 C9.194999694824219,7.716000080108643 6.131999969482422,5.145999908447266 6.131999969482422,5.145999908447266 C5.214000225067139,6.245999813079834 4.013999938964844,7.0929999351501465 2.6429998874664307,7.573999881744385 C0.7440000176429749,8.239999771118164 -1.3370000123977661,8.166000366210938 -3.184000015258789,7.367000102996826 C-5.031000137329102,6.566999912261963 -6.508999824523926,5.098999977111816 -7.322000026702881,3.257999897003174 C-7.489999771118164,2.878999948501587 -7.61899995803833,2.48799991607666 -7.724999904632568,2.0920000076293945 C-7.724999904632568,2.0920000076293945 0.20399999618530273,2.0920000076293945 0.20399999618530273,2.0920000076293945 C0.20399999618530273,2.0920000076293945 11.815999984741211,2.0920000076293945 11.815999984741211,2.0920000076293945 C11.815999984741211,2.0920000076293945 11.815999984741211,2.0910000801086426 11.815999984741211,2.0910000801086426 C12.336000442504883,-0.8840000033378601 11.71399974822998,-3.944999933242798 10.07699966430664,-6.48199987411499z M0.20399999618530273,-1.8389999866485596 C0.20399999618530273,-1.8389999866485596 0.20399999618530273,-1.8370000123977661 0.20399999618530273,-1.8370000123977661 C0.20399999618530273,-1.8370000123977661 -7.784999847412109,-1.8370000123977661 -7.784999847412109,-1.8370000123977661 C-7.72599983215332,-2.0829999446868896 -7.65500020980835,-2.3269999027252197 -7.572000026702881,-2.568000078201294 C-6.920000076293945,-4.4720001220703125 -5.573999881744385,-6.059999942779541 -3.802999973297119,-7.015999794006348 C-2.0309998989105225,-7.9710001945495605 0.03700000047683716,-8.222000122070312 1.9859999418258667,-7.7210001945495605 C3.936000108718872,-7.21999979019165 5.623000144958496,-6.004000186920166 6.715000152587891,-4.311999797821045 C7.209000110626221,-3.546999931335449 7.564000129699707,-2.7100000381469727 7.7729997634887695,-1.8389999866485596 C7.7729997634887695,-1.8389999866485596 0.20399999618530273,-1.8389999866485596 0.20399999618530273,-1.8389999866485596z"></path></g></g></g></svg>