<svg width="286" height="286" viewBox="0 0 286 286" fill="none" xmlns="http://www.w3.org/2000/svg">
<g clip-path="url(#clip0_1_57)">
<g filter="url(#filter0_dii_1_57)">
<path d="M136.848 251.64C140.323 253.515 144.695 253.521 148.186 251.676C243.328 201.086 250.493 101.486 250.53 73.1571C250.531 70.8802 249.868 68.6526 248.621 66.747C247.375 64.8415 245.601 63.3407 243.514 62.4285L148.318 19.7738C146.803 19.0983 145.164 18.7468 143.505 18.7418C141.846 18.7368 140.205 19.0784 138.686 19.7447L43.7945 61.592C41.7315 62.4871 39.9692 63.9564 38.7177 65.8248C37.4662 67.6933 36.7782 69.8821 36.7357 72.1306C36.2131 100.315 41.4642 200.181 136.848 251.64Z" fill="url(#paint0_linear_1_57)"/>
</g>
<g filter="url(#filter1_dii_1_57)">
<path fill-rule="evenodd" clip-rule="evenodd" d="M202.569 86.5271C208.363 92.2876 208.39 101.654 202.629 107.447L140.787 169.644C135.192 175.271 126.152 175.481 120.302 170.119L91.5901 143.805C85.5671 138.285 85.1594 128.927 90.6795 122.904C96.1995 116.881 105.557 116.474 111.58 121.994L129.821 138.712L181.649 86.5869C187.41 80.7935 196.776 80.7667 202.569 86.5271Z" fill="white"/>
</g>
</g>
<defs>
<filter id="filter0_dii_1_57" x="3.83252" y="7.23613" width="279.571" height="303.345" filterUnits="userSpaceOnUse" color-interpolation-filters="sRGB">
<feFlood flood-opacity="0" result="BackgroundImageFix"/>
<feColorMatrix in="SourceAlpha" type="matrix" values="0 0 0 0 0 0 0 0 0 0 0 0 0 0 0 0 0 0 127 0" result="hardAlpha"/>
<feOffset dy="24.6548"/>
<feGaussianBlur stdDeviation="16.4365"/>
<feColorMatrix type="matrix" values="0 0 0 0 0.298039 0 0 0 0 0.215686 0 0 0 0 0.0352941 0 0 0 0.55 0"/>
<feBlend mode="normal" in2="BackgroundImageFix" result="effect1_dropShadow_1_57"/>
<feBlend mode="normal" in="SourceGraphic" in2="effect1_dropShadow_1_57" result="shape"/>
<feColorMatrix in="SourceAlpha" type="matrix" values="0 0 0 0 0 0 0 0 0 0 0 0 0 0 0 0 0 0 127 0" result="hardAlpha"/>
<feOffset dy="-11.5056"/>
<feGaussianBlur stdDeviation="18.902"/>
<feComposite in2="hardAlpha" operator="arithmetic" k2="-1" k3="1"/>
<feColorMatrix type="matrix" values="0 0 0 0 0 0 0 0 0 0 0 0 0 0 0 0 0 0 0.25 0"/>
<feBlend mode="normal" in2="shape" result="effect2_innerShadow_1_57"/>
<feColorMatrix in="SourceAlpha" type="matrix" values="0 0 0 0 0 0 0 0 0 0 0 0 0 0 0 0 0 0 127 0" result="hardAlpha"/>
<feOffset dy="-4.93096"/>
<feGaussianBlur stdDeviation="3.2873"/>
<feComposite in2="hardAlpha" operator="arithmetic" k2="-1" k3="1"/>
<feColorMatrix type="matrix" values="0 0 0 0 0.974333 0 0 0 0 1 0 0 0 0 0.954167 0 0 0 0.67 0"/>
<feBlend mode="normal" in2="effect2_innerShadow_1_57" result="effect3_innerShadow_1_57"/>
</filter>
<filter id="filter1_dii_1_57" x="71.9992" y="74.006" width="149.726" height="121.368" filterUnits="userSpaceOnUse" color-interpolation-filters="sRGB">
<feFlood flood-opacity="0" result="BackgroundImageFix"/>
<feColorMatrix in="SourceAlpha" type="matrix" values="0 0 0 0 0 0 0 0 0 0 0 0 0 0 0 0 0 0 127 0" result="hardAlpha"/>
<feOffset dy="6.57461"/>
<feGaussianBlur stdDeviation="7.39643"/>
<feColorMatrix type="matrix" values="0 0 0 0 0 0 0 0 0 0 0 0 0 0 0 0 0 0 0.15 0"/>
<feBlend mode="normal" in2="BackgroundImageFix" result="effect1_dropShadow_1_57"/>
<feBlend mode="normal" in="SourceGraphic" in2="effect1_dropShadow_1_57" result="shape"/>
<feColorMatrix in="SourceAlpha" type="matrix" values="0 0 0 0 0 0 0 0 0 0 0 0 0 0 0 0 0 0 127 0" result="hardAlpha"/>
<feOffset dy="-8.21826"/>
<feGaussianBlur stdDeviation="4.10913"/>
<feComposite in2="hardAlpha" operator="arithmetic" k2="-1" k3="1"/>
<feColorMatrix type="matrix" values="0 0 0 0 0 0 0 0 0 0 0 0 0 0 0 0 0 0 0.25 0"/>
<feBlend mode="normal" in2="shape" result="effect2_innerShadow_1_57"/>
<feColorMatrix in="SourceAlpha" type="matrix" values="0 0 0 0 0 0 0 0 0 0 0 0 0 0 0 0 0 0 127 0" result="hardAlpha"/>
<feOffset dy="-4.93096"/>
<feGaussianBlur stdDeviation="4.93096"/>
<feComposite in2="hardAlpha" operator="arithmetic" k2="-1" k3="1"/>
<feColorMatrix type="matrix" values="0 0 0 0 1 0 0 0 0 1 0 0 0 0 1 0 0 0 0.85 0"/>
<feBlend mode="normal" in2="effect2_innerShadow_1_57" result="effect3_innerShadow_1_57"/>
</filter>
<linearGradient id="paint0_linear_1_57" x1="143.853" y1="18.7432" x2="142.858" y2="253.055" gradientUnits="userSpaceOnUse">
<stop stop-color="#4C3709"/>
<stop offset="1" stop-color="#4C3709"/>
</linearGradient>
<clipPath id="clip0_1_57">
<rect width="284.352" height="284.352" fill="white" transform="translate(1.20776) rotate(0.243351)"/>
</clipPath>
</defs>
</svg>
